<?xml version="1.0" encoding="UTF-8"?> <svg xmlns="http://www.w3.org/2000/svg" width="40" height="40" viewBox="0 0 40 40" fill="none"><path d="M11.5132 16.9639C11.4948 17.192 11.4829 17.4224 11.4829 17.6553C11.4829 17.7585 11.4861 17.8615 11.4897 17.9639H10.8315C6.69685 17.9641 3.32276 21.408 3.32275 25.6836V26.7246H9.06299C8.81762 27.0455 8.58786 27.379 8.37549 27.7246H2.82275C2.54676 27.7244 2.32275 27.5006 2.32275 27.2246V25.6836C2.32276 20.8803 6.12024 16.9641 10.8315 16.9639H11.5132ZM29.1675 16.9639C33.879 16.9639 37.6762 20.8802 37.6763 25.6836V27.2246C37.6763 27.5008 37.4524 27.7246 37.1763 27.7246H31.6235C31.4112 27.379 31.1814 27.0455 30.936 26.7246H36.6763V25.6836C36.6762 21.4079 33.3023 17.9639 29.1675 17.9639H28.5093C28.5129 17.8615 28.5161 17.7585 28.5161 17.6553C28.5161 17.4224 28.5042 17.192 28.4858 16.9639H29.1675ZM12.5845 3.94922C15.5556 3.94956 17.9642 6.35895 17.9644 9.33008C17.9644 9.34866 17.9626 9.3672 17.9624 9.38574C17.615 9.47102 17.2759 9.57669 16.9468 9.70312C16.9572 9.5801 16.9643 9.45579 16.9644 9.33008C16.9642 6.91123 15.0033 4.94956 12.5845 4.94922C10.1654 4.94922 8.2038 6.91102 8.20361 9.33008C8.20387 11.7053 10.0951 13.6368 12.4536 13.7061C12.2891 14.0198 12.1421 14.3444 12.0171 14.6797C9.31242 14.3962 7.20385 12.1097 7.20361 9.33008C7.2038 6.35873 9.61308 3.94922 12.5845 3.94922ZM27.4165 3.94922C30.3876 3.94956 32.7962 6.35896 32.7964 9.33008C32.7961 12.1108 30.6862 14.3977 27.98 14.6797C27.8549 14.3445 27.709 14.0197 27.5444 13.7061C29.904 13.638 31.7961 11.7061 31.7964 9.33008C31.7962 6.91124 29.8353 4.94956 27.4165 4.94922C24.9975 4.94928 23.0358 6.91107 23.0356 9.33008C23.0357 9.45609 23.0418 9.58079 23.0522 9.7041C22.723 9.57761 22.3841 9.47105 22.0366 9.38574C22.0364 9.36721 22.0356 9.34866 22.0356 9.33008C22.0358 6.35878 24.4452 3.94928 27.4165 3.94922Z" fill="#00BF59"></path><path d="M21.7512 25.2894C26.4627 25.2894 30.26 29.2057 30.26 34.0091V35.5501C30.26 35.8263 30.0362 36.0501 29.76 36.0501H10.2385C9.96253 36.0499 9.73853 35.8261 9.73853 35.5501V34.0091C9.73854 29.2058 13.536 25.2896 18.2473 25.2894H21.7512ZM18.2473 26.2894C14.1126 26.2896 10.7385 29.7335 10.7385 34.0091V35.0501H29.26V34.0091C29.26 29.7333 25.8861 26.2894 21.7512 26.2894H18.2473ZM20.0002 12.2747C22.9713 12.2751 25.3799 14.6844 25.3801 17.6556C25.3799 20.6267 22.9713 23.0351 20.0002 23.0355C17.0289 23.0355 14.6196 20.6269 14.6194 17.6556C14.6196 14.6842 17.0289 12.2747 20.0002 12.2747ZM20.0002 13.2747C17.5811 13.2747 15.6196 15.2365 15.6194 17.6556C15.6196 20.0746 17.5812 22.0355 20.0002 22.0355C22.419 22.0351 24.3799 20.0744 24.3801 17.6556C24.3799 15.2367 22.4191 13.2751 20.0002 13.2747Z" fill="#00BF59"></path></svg> 