<?xml version="1.0" encoding="UTF-8"?> <svg xmlns="http://www.w3.org/2000/svg" width="40" height="40" viewBox="0 0 40 40" fill="none"><path d="M27.5 31.25H12.5" stroke="#00A651"></path><path d="M12.5 17.0527C12.5 13.7374 13.8169 10.5581 16.1612 8.21381L20 4.375L23.8388 8.21381C26.1831 10.5581 27.5 13.7374 27.5 17.0527V31.25H12.5V17.0527Z" stroke="#00A651"></path><path d="M21.875 15.625C21.875 14.5895 21.0355 13.75 20 13.75C18.9645 13.75 18.125 14.5895 18.125 15.625V17.5C18.125 18.5355 18.9645 19.375 20 19.375C21.0355 19.375 21.875 18.5355 21.875 17.5V15.625Z" stroke="#00A651"></path><path d="M6.875 30.1372C6.875 26.7704 9.21337 23.8554 12.5 23.125V31.25L6.875 35V30.1372Z" stroke="#00A651"></path><path d="M33.125 30.1372C33.125 26.7704 30.7866 23.8554 27.5 23.125V31.25L33.125 35V30.1372Z" stroke="#00A651"></path></svg> 